<svg xmlns="http://www.w3.org/2000/svg" xmlns:xlink="http://www.w3.org/1999/xlink" width="1052" height="44pt" viewBox="0 0 788.66 44"><g id="graph0" class="graph" transform="scale(1 1) rotate(0) translate(4 40)"><title>%3</title><polygon fill="#fff" stroke="transparent" points="-4 4 -4 -40 784.656 -40 784.656 4 -4 4"/><g id="node1" class="node"><title>plage</title><ellipse cx="29.897" cy="-18" fill="none" stroke="#000" rx="29.795" ry="18"/><text x="29.897" y="-14.3" fill="#000" font-family="Times,serif" font-size="14" text-anchor="middle">plage</text></g><g id="node2" class="node"><title>forêt de palmiers</title><ellipse cx="203.288" cy="-18" fill="none" stroke="#000" rx="71.487" ry="18"/><text x="203.288" y="-14.3" fill="#000" font-family="Times,serif" font-size="14" text-anchor="middle">forêt de palmiers</text></g><g id="edge1" class="edge"><title>plage-&gt;forêt de palmiers</title><path fill="none" stroke="#000" d="M60.0998,-18C77.2644,-18 99.662,-18 121.6272,-18"/><polygon fill="#000" stroke="#000" points="121.669 -21.5 131.669 -18 121.669 -14.5 121.669 -21.5"/></g><g id="node3" class="node"><title>cabane de pêcheurs</title><ellipse cx="426.075" cy="-18" fill="none" stroke="#000" rx="79.087" ry="18"/><text x="426.075" y="-14.3" fill="#000" font-family="Times,serif" font-size="14" text-anchor="middle">cabane de pêcheurs</text></g><g id="edge2" class="edge"><title>forêt de palmiers-&gt;cabane de pêcheurs</title><path fill="none" stroke="#000" d="M275.0058,-18C294.5929,-18 316.0628,-18 336.5111,-18"/><polygon fill="#000" stroke="#000" points="336.774 -21.5 346.774 -18 336.774 -14.5 336.774 -21.5"/></g><g id="node4" class="node"><title>volcan</title><ellipse cx="611.815" cy="-18" fill="none" stroke="#000" rx="34.394" ry="18"/><text x="611.815" y="-14.3" fill="#000" font-family="Times,serif" font-size="14" text-anchor="middle">volcan</text></g><g id="edge3" class="edge"><title>cabane de pêcheurs-&gt;volcan</title><path fill="none" stroke="#000" d="M505.3842,-18C526.4177,-18 548.3997,-18 566.8885,-18"/><polygon fill="#000" stroke="#000" points="567.054 -21.5 577.054 -18 567.054 -14.5 567.054 -21.5"/></g><g id="node5" class="node"><title>grotte</title><ellipse cx="749.459" cy="-18" fill="none" stroke="#000" rx="31.396" ry="18"/><text x="749.459" y="-14.3" fill="#000" font-family="Times,serif" font-size="14" text-anchor="middle">grotte</text></g><g id="edge4" class="edge"><title>volcan-&gt;grotte</title><path fill="none" stroke="#000" d="M646.5483,-18C665.1805,-18 688.2722,-18 707.8577,-18"/><polygon fill="#000" stroke="#000" points="708.032 -21.5 718.032 -18 708.032 -14.5 708.032 -21.5"/></g></g></svg>