<svg xmlns="http://www.w3.org/2000/svg" xmlns:svg="http://www.w3.org/2000/svg" id="svg60" width="1000" height="1000" version="1.1" viewBox="0 0 2000 1000"><metadata id="metadata66"/><defs id="defs64"><marker style="overflow:visible" id="marker3263" orient="auto" refX="0" refY="0"><path id="path3261" d="M 8.7185878,4.0337352 L -2.2072895,0.016013256 L 8.7185884,-4.0017078 C 6.9730900,-1.6296469 6.9831476,1.6157441 8.7185878,4.0337352 z" transform="scale(1.1) rotate(180) translate(1,0)" style="fill-rule:evenodd;stroke-width:.625;stroke-linejoin:round;stroke:#696969;stroke-opacity:1;fill:#696969;fill-opacity:1"/></marker><marker style="overflow:visible" id="marker3113" orient="auto" refX="0" refY="0"><path id="path3111" d="M 8.7185878,4.0337352 L -2.2072895,0.016013256 L 8.7185884,-4.0017078 C 6.9730900,-1.6296469 6.9831476,1.6157441 8.7185878,4.0337352 z" transform="scale(1.1) rotate(180) translate(1,0)" style="fill-rule:evenodd;stroke-width:.625;stroke-linejoin:round;stroke:gold;stroke-opacity:1;fill:gold;fill-opacity:1"/></marker><marker style="overflow:visible" id="marker2975" orient="auto" refX="0" refY="0"><path id="path2973" d="M 8.7185878,4.0337352 L -2.2072895,0.016013256 L 8.7185884,-4.0017078 C 6.9730900,-1.6296469 6.9831476,1.6157441 8.7185878,4.0337352 z" transform="scale(1.1) rotate(180) translate(1,0)" style="fill-rule:evenodd;stroke-width:.625;stroke-linejoin:round;stroke:orchid;stroke-opacity:1;fill:orchid;fill-opacity:1"/></marker><marker style="overflow:visible" id="marker2795" orient="auto" refX="0" refY="0"><path id="path2793" d="M 8.7185878,4.0337352 L -2.2072895,0.016013256 L 8.7185884,-4.0017078 C 6.9730900,-1.6296469 6.9831476,1.6157441 8.7185878,4.0337352 z" transform="scale(1.1) rotate(180) translate(1,0)" style="fill-rule:evenodd;stroke-width:.625;stroke-linejoin:round;stroke:#d2691e;stroke-opacity:1;fill:#d2691e;fill-opacity:1"/></marker><marker style="overflow:visible" id="marker2687" orient="auto" refX="0" refY="0"><path id="path2685" d="M 8.7185878,4.0337352 L -2.2072895,0.016013256 L 8.7185884,-4.0017078 C 6.9730900,-1.6296469 6.9831476,1.6157441 8.7185878,4.0337352 z" transform="scale(1.1) rotate(180) translate(1,0)" style="fill-rule:evenodd;stroke-width:.625;stroke-linejoin:round;stroke:#0f0;stroke-opacity:1;fill:#0f0;fill-opacity:1"/></marker><marker style="overflow:visible" id="marker2603" orient="auto" refX="0" refY="0"><path id="path2601" d="M 8.7185878,4.0337352 L -2.2072895,0.016013256 L 8.7185884,-4.0017078 C 6.9730900,-1.6296469 6.9831476,1.6157441 8.7185878,4.0337352 z" transform="scale(1.1) rotate(180) translate(1,0)" style="fill-rule:evenodd;stroke-width:.625;stroke-linejoin:round;stroke:gray;stroke-opacity:1;fill:gray;fill-opacity:1"/></marker><marker style="overflow:visible" id="marker2459" orient="auto" refX="0" refY="0"><path id="path2457" d="M 8.7185878,4.0337352 L -2.2072895,0.016013256 L 8.7185884,-4.0017078 C 6.9730900,-1.6296469 6.9831476,1.6157441 8.7185878,4.0337352 z" transform="scale(1.1) rotate(180) translate(1,0)" style="fill-rule:evenodd;stroke-width:.625;stroke-linejoin:round;stroke:peru;stroke-opacity:1;fill:peru;fill-opacity:1"/></marker><marker style="overflow:visible" id="marker2345" orient="auto" refX="0" refY="0"><path id="path2343" d="M 8.7185878,4.0337352 L -2.2072895,0.016013256 L 8.7185884,-4.0017078 C 6.9730900,-1.6296469 6.9831476,1.6157441 8.7185878,4.0337352 z" transform="scale(1.1) rotate(180) translate(1,0)" style="fill-rule:evenodd;stroke-width:.625;stroke-linejoin:round;stroke:#7fffd4;stroke-opacity:1;fill:#7fffd4;fill-opacity:1"/></marker><marker style="overflow:visible" id="marker2074" orient="auto" refX="0" refY="0"><path id="path2072" d="M 8.7185878,4.0337352 L -2.2072895,0.016013256 L 8.7185884,-4.0017078 C 6.9730900,-1.6296469 6.9831476,1.6157441 8.7185878,4.0337352 z" transform="scale(1.1) rotate(180) translate(1,0)" style="fill-rule:evenodd;stroke-width:.625;stroke-linejoin:round;stroke:#00ced1;stroke-opacity:1;fill:#00ced1;fill-opacity:1"/></marker><marker style="overflow:visible" id="marker1792" orient="auto" refX="0" refY="0"><path id="path1790" d="M 8.7185878,4.0337352 L -2.2072895,0.016013256 L 8.7185884,-4.0017078 C 6.9730900,-1.6296469 6.9831476,1.6157441 8.7185878,4.0337352 z" transform="scale(1.1) rotate(180) translate(1,0)" style="fill-rule:evenodd;stroke-width:.625;stroke-linejoin:round;stroke:#ff1492;stroke-opacity:1;fill:#ff1492;fill-opacity:1"/></marker><marker style="overflow:visible" id="marker1720" orient="auto" refX="0" refY="0"><path id="path1718" d="M 8.7185878,4.0337352 L -2.2072895,0.016013256 L 8.7185884,-4.0017078 C 6.9730900,-1.6296469 6.9831476,1.6157441 8.7185878,4.0337352 z" transform="scale(1.1) rotate(180) translate(1,0)" style="fill-rule:evenodd;stroke-width:.625;stroke-linejoin:round;stroke:#556b2f;stroke-opacity:1;fill:#556b2f;fill-opacity:1"/></marker><marker style="overflow:visible" id="marker1545" orient="auto" refX="0" refY="0"><path id="path1543" d="M 8.7185878,4.0337352 L -2.2072895,0.016013256 L 8.7185884,-4.0017078 C 6.9730900,-1.6296469 6.9831476,1.6157441 8.7185878,4.0337352 z" transform="scale(1.1) rotate(180) translate(1,0)" style="fill-rule:evenodd;stroke-width:.625;stroke-linejoin:round;stroke:brown;stroke-opacity:1;fill:brown;fill-opacity:1"/></marker><marker style="overflow:visible" id="marker1511" orient="auto" refX="0" refY="0"><path transform="scale(0.8) rotate(180) translate(12.5,0)" style="fill-rule:evenodd;stroke:brown;stroke-width:1pt;stroke-opacity:1;fill:brown;fill-opacity:1" id="path1509" d="M 0.0,0.0 L 5.0,-5.0 L -12.5,0.0 L 5.0,5.0 L 0.0,0.0 z"/></marker><marker style="overflow:visible" id="Arrow2Lend" orient="auto" refX="0" refY="0"><path id="path918" d="M 8.7185878,4.0337352 L -2.2072895,0.016013256 L 8.7185884,-4.0017078 C 6.9730900,-1.6296469 6.9831476,1.6157441 8.7185878,4.0337352 z" transform="scale(1.1) rotate(180) translate(1,0)" style="fill-rule:evenodd;stroke-width:.625;stroke-linejoin:round;stroke:brown;stroke-opacity:1;fill:brown;fill-opacity:1"/></marker><marker style="overflow:visible" id="Arrow1Mend" orient="auto" refX="0" refY="0"><path transform="scale(0.4) rotate(180) translate(10,0)" style="fill-rule:evenodd;stroke:brown;stroke-width:1pt;stroke-opacity:1;fill:brown;fill-opacity:1" id="path906" d="M 0.0,0.0 L 5.0,-5.0 L -12.5,0.0 L 5.0,5.0 L 0.0,0.0 z"/></marker><marker style="overflow:visible" id="Arrow1Lend" orient="auto" refX="0" refY="0"><path transform="scale(0.8) rotate(180) translate(12.5,0)" style="fill-rule:evenodd;stroke:brown;stroke-width:1pt;stroke-opacity:1;fill:brown;fill-opacity:1" id="path900" d="M 0.0,0.0 L 5.0,-5.0 L -12.5,0.0 L 5.0,5.0 L 0.0,0.0 z"/></marker></defs><desc id="desc2">Disque de dechiffrage</desc><circle id="circle4" cx="500" cy="500" r="475" fill="none" stroke="#696969" stroke-width="5"/><circle id="circle6" cx="500" cy="500" r="7" fill="#696969" stroke="#696969" stroke-width="5"/><circle id="circle8" cx="855.07" cy="705" r="28" fill="#f0f8ff" stroke="gray" stroke-width="3.75"/><circle id="circle10" cx="705" cy="855.07" r="28" fill="brown" stroke="gray" stroke-width="3.75"/><circle id="circle12" cx="500" cy="910" r="28" fill="#7fffd4" stroke="gray" stroke-width="3.75"/><circle id="circle14" cx="295" cy="855.07" r="28" fill="#d2691e" stroke="gray" stroke-width="3.75"/><circle id="circle16" cx="144.93" cy="705" r="28" fill="#00ced1" stroke="gray" stroke-width="3.75"/><circle id="circle18" cx="90" cy="500" r="28" fill="#556b2f" stroke="gray" stroke-width="3.75"/><circle id="circle20" cx="144.93" cy="295" r="28" fill="gold" stroke="gray" stroke-width="3.75"/><circle id="circle22" cx="295" cy="144.93" r="28" fill="#696969" stroke="gray" stroke-width="3.75"/><circle id="circle24" cx="500" cy="90" r="28" fill="#ff1493" stroke="gray" stroke-width="3.75"/><circle id="circle26" cx="705" cy="144.93" r="28" fill="#0f0" stroke="gray" stroke-width="3.75"/><circle id="circle28" cx="855.07" cy="295" r="28" fill="peru" stroke="gray" stroke-width="3.75"/><circle id="circle30" cx="910" cy="500" r="28" fill="orchid" stroke="gray" stroke-width="3.75"/><circle id="circle32" cx="1500" cy="500" r="350" fill="none" stroke="#696969" stroke-width="5"/><circle id="circle34" cx="1748.549" cy="643.5" r="28" fill="#7fffd4" stroke="gray" stroke-width="3.75"/><circle id="circle36" cx="1643.5" cy="748.549" r="28" fill="#00ced1" stroke="gray" stroke-width="3.75"/><circle id="circle38" cx="1500" cy="787" r="28" fill="#ff1493" stroke="gray" stroke-width="3.75"/><circle id="circle40" cx="1356.5" cy="748.549" r="28" fill="#556b2f" stroke="gray" stroke-width="3.75" style="fill:#556b2f;fill-opacity:1"/><circle id="circle42" cx="1251.451" cy="643.5" r="28" fill="brown" stroke="gray" stroke-width="3.75" style="fill:brown;fill-opacity:1"/><circle id="circle44" cx="1213" cy="500" r="28" fill="orchid" stroke="gray" stroke-width="3.75"/><circle id="circle46" cx="1251.451" cy="356.5" r="28" fill="#696969" stroke="gray" stroke-width="3.75"/><circle id="circle48" cx="1356.5" cy="251.451" r="28" fill="gold" stroke="gray" stroke-width="3.75"/><circle id="circle50" cx="1500" cy="213" r="28" fill="#0f0" stroke="gray" stroke-width="3.75"/><circle id="circle52" cx="1643.5" cy="251.451" r="28" fill="#f0f8ff" stroke="gray" stroke-width="3.75"/><circle id="circle54" cx="1748.549" cy="356.5" r="28" fill="#d2691e" stroke="gray" stroke-width="3.75"/><circle id="circle56" cx="1787" cy="500" r="28" fill="peru" stroke="gray" stroke-width="3.75"/><circle id="circle58" cx="1500" cy="500" r="7" fill="#696969" stroke="#696969" stroke-width="5"/><path style="fill:none;stroke:brown;stroke-width:2.046;stroke-linecap:butt;stroke-linejoin:miter;stroke-miterlimit:4;stroke-dasharray:none;stroke-opacity:1;marker-end:url(#marker1545)" id="path1215" d="m 1267.4491,647.70012 c 478.4368,68.3786 521.2153,25.84538 537.769,19.78788"/><path style="fill:none;stroke:#556b2f;stroke-width:2px;stroke-linecap:butt;stroke-linejoin:miter;stroke-opacity:1;marker-end:url(#marker1720)" id="path1716" d="m 1376.75,733.5 c 40.7693,-25.819 125.5581,35.47839 321.25,55"/><path style="fill:none;fill-opacity:1;stroke:#ff1492;stroke-width:2px;stroke-linecap:butt;stroke-linejoin:miter;stroke-opacity:1;marker-end:url(#marker1792)" id="path1788" d="m 1516.3336,768.86136 c 135.405,-155.06198 275.2377,-327.38762 291.4078,-432.01338"/><path style="fill:none;stroke:#00ced1;stroke-width:2px;stroke-linecap:butt;stroke-linejoin:miter;stroke-opacity:1;marker-end:url(#marker2074)" id="path1922" d="M 1635.0147,726.12132 C 1584.1814,534.62132 1671.6378,307.56937 1512.5,154.5"/><path style="fill:none;stroke:#7fffd4;stroke-width:1.45568px;stroke-linecap:butt;stroke-linejoin:miter;stroke-opacity:1;marker-end:url(#marker2345)" id="path2341" d="m 1744.5627,628.08625 c -42.011,-40.41039 76.2476,-91.97058 99.6919,-103.32144"/><path style="fill:none;stroke:peru;stroke-width:2.0038px;stroke-linecap:butt;stroke-linejoin:miter;stroke-opacity:1;marker-end:url(#marker2459)" id="path2455" d="M 1767.1006,484.21026 C 1709.5096,379.6953 1446.4486,195.71403 1323.7103,200.05676"/><path style="fill:none;stroke:gray;stroke-width:2px;stroke-linecap:butt;stroke-linejoin:miter;stroke-opacity:1;marker-end:url(#marker2603)" id="path2599" d="m 1618.5,262 c -131.8061,36.78303 -277.9166,31.96859 -415,59"/><path style="fill:none;stroke:#0f0;stroke-width:2px;stroke-linecap:butt;stroke-linejoin:miter;stroke-opacity:1;marker-end:url(#marker2687)" id="path2683" d="M 1485.8839,234.17417 C 1371.4752,361.64945 1387.9507,703.88081 1477,845.5"/><path style="fill:none;stroke:#d2691e;stroke-width:1.98128px;stroke-linecap:butt;stroke-linejoin:miter;stroke-opacity:1;marker-end:url(#marker2795)" id="path2791" d="m 1726.5038,362.49176 c -194.1887,-42.86351 -392.5994,7.14362 -569.4382,103.72513"/><path style="fill:none;stroke:orchid;stroke-width:1.98553px;stroke-linecap:butt;stroke-linejoin:miter;stroke-opacity:1;marker-end:url(#marker2975)" id="path2971" d="M 1235.9816,508.50051 C 1395.2864,429.93586 1711.5513,361.91959 1697.026,216.97328"/><path style="fill:none;stroke:gold;stroke-width:2px;stroke-linecap:butt;stroke-linejoin:miter;stroke-opacity:1;marker-end:url(#marker3113);fill-opacity:1" id="path3109" d="M 1348.4526,269.33218 C 1308.4699,399.05192 1224.85,531.64786 1207.7384,682.28255"/><path style="fill:none;stroke:#696969;stroke-width:2px;stroke-linecap:butt;stroke-linejoin:miter;stroke-opacity:1;marker-end:url(#marker3263)" id="path3259" d="m 1268.5496,370.44844 c 114.1187,69.4804 -6.3601,290.14655 60.8111,429.21383"/></svg>