<svg xmlns="http://www.w3.org/2000/svg" xmlns:svg="http://www.w3.org/2000/svg" id="svg8" width="70mm" height="20mm" version="1.1" viewBox="0 0 70 20"><metadata id="metadata5"/><g id="layer1" transform="translate(0,-277)"><g id="g846" transform="translate(1.8140873,-0.76726353)"><path style="stroke-width:.01953125" id="path826" d="M 13.561644,291.6509 H 5.4366448 c -0.1718753,0 -0.3124999,0.14063 -0.3124999,0.3125 v 0.62499 c 0,0.17189 0.1406246,0.31251 0.3124999,0.31251 h 8.1249992 c 0.171876,0 0.312501,-0.14062 0.312501,-0.31251 v -0.62499 c 0,-0.17187 -0.140625,-0.3125 -0.312501,-0.3125 z m 1.250001,-6.25 c -0.517579,0 -0.9375,0.41992 -0.9375,0.9375 0,0.13867 0.03125,0.26758 0.08594,0.38672 l -1.414062,0.84766 c -0.300783,0.17968 -0.689455,0.0782 -0.863283,-0.22657 l -1.591796,-2.78515 c 0.208984,-0.17188 0.345703,-0.42969 0.345703,-0.72266 0,-0.51757 -0.419922,-0.9375 -0.9374998,-0.9375 -0.5175784,0 -0.9374999,0.41993 -0.9374999,0.9375 0,0.29297 0.1367186,0.55078 0.3457031,0.72266 l -1.5917979,2.78515 c -0.1738278,0.30469 -0.5644523,0.40625 -0.8632804,0.22657 l -1.4121094,-0.84766 c 0.052736,-0.11719 0.085938,-0.24805 0.085938,-0.38672 0,-0.51758 -0.4199215,-0.9375 -0.9374999,-0.9375 -0.5175783,0 -0.9394533,0.41992 -0.9394533,0.9375 0,0.51758 0.4199224,0.9375 0.9375008,0.9375 0.05078,0 0.1015619,-0.007 0.1503903,-0.0157 l 1.4121094,3.76563 h 7.5 l 1.412109,-3.76563 c 0.04882,0.007 0.09961,0.0157 0.150391,0.0157 0.517577,0 0.937499,-0.41992 0.937499,-0.9375 0,-0.51758 -0.419922,-0.9375 -0.937499,-0.9375 z"/><text id="text839" x="20.981" y="290.586" style="font-style:normal;font-variant:normal;font-weight:400;font-stretch:normal;font-size:7.05555534px;line-height:125%;font-family:Ubuntu;-inkscape-font-specification:Ubuntu;letter-spacing:0;word-spacing:0;fill:#000;fill-opacity:1;stroke:none;stroke-width:.26458332px;stroke-linecap:butt;stroke-linejoin:miter;stroke-opacity:1" xml:space="preserve"><tspan style="font-style:normal;font-variant:normal;font-weight:400;font-stretch:normal;font-size:7.05555534px;font-family:Ubuntu;-inkscape-font-specification:Ubuntu;stroke-width:.26458332px" id="tspan837" x="20.981" y="290.586">Coordinateur</tspan></text></g><rect style="fill:none;fill-opacity:1;stroke:#000;stroke-width:.13211915;stroke-linejoin:miter;stroke-miterlimit:4;stroke-dasharray:none;stroke-dashoffset:0;stroke-opacity:1" id="rect841" width="70" height="20" x=".134" y="277.134"/></g></svg>